<mxfile host="www.draw.io" modified="2020-01-31T22:31:13.485Z" agent="Mozilla/5.0 (Windows NT 10.0; Win64; x64) AppleWebKit/537.36 (KHTML, like Gecko) Chrome/79.0.3945.130 Safari/537.36 Edg/79.0.309.71" etag="lFfR7M31768B5RAB1jTu" version="12.6.2" type="github">
  <diagram id="C5RBs43oDa-KdzZeNtuy" name="Page-1">
    <mxGraphModel dx="868" dy="478" grid="1" gridSize="10" guides="1" tooltips="1" connect="1" arrows="1" fold="1" page="1" pageScale="1" pageWidth="1169" pageHeight="827" math="0" shadow="0">
      <root>
        <mxCell id="WIyWlLk6GJQsqaUBKTNV-0"/>
        <mxCell id="WIyWlLk6GJQsqaUBKTNV-1" parent="WIyWlLk6GJQsqaUBKTNV-0"/>
        <mxCell id="nordsz7KWsW65aY-Uur0-18" value="User" style="swimlane;fontStyle=1;align=center;verticalAlign=top;childLayout=stackLayout;horizontal=1;startSize=26;horizontalStack=0;resizeParent=1;resizeParentMax=0;resizeLast=0;collapsible=1;marginBottom=0;" vertex="1" parent="WIyWlLk6GJQsqaUBKTNV-1">
          <mxGeometry x="230" y="30" width="160" height="190" as="geometry"/>
        </mxCell>
        <mxCell id="nordsz7KWsW65aY-Uur0-19" value="+ field: ID" style="text;strokeColor=none;fillColor=none;align=left;verticalAlign=top;spacingLeft=4;spacingRight=4;overflow=hidden;rotatable=0;points=[[0,0.5],[1,0.5]];portConstraint=eastwest;" vertex="1" parent="nordsz7KWsW65aY-Uur0-18">
          <mxGeometry y="26" width="160" height="26" as="geometry"/>
        </mxCell>
        <mxCell id="nordsz7KWsW65aY-Uur0-24" value="+ field: Forename" style="text;strokeColor=none;fillColor=none;align=left;verticalAlign=top;spacingLeft=4;spacingRight=4;overflow=hidden;rotatable=0;points=[[0,0.5],[1,0.5]];portConstraint=eastwest;" vertex="1" parent="nordsz7KWsW65aY-Uur0-18">
          <mxGeometry y="52" width="160" height="26" as="geometry"/>
        </mxCell>
        <mxCell id="nordsz7KWsW65aY-Uur0-25" value="+ field: Surname" style="text;strokeColor=none;fillColor=none;align=left;verticalAlign=top;spacingLeft=4;spacingRight=4;overflow=hidden;rotatable=0;points=[[0,0.5],[1,0.5]];portConstraint=eastwest;" vertex="1" parent="nordsz7KWsW65aY-Uur0-18">
          <mxGeometry y="78" width="160" height="26" as="geometry"/>
        </mxCell>
        <mxCell id="nordsz7KWsW65aY-Uur0-26" value="+ field: Username" style="text;strokeColor=none;fillColor=none;align=left;verticalAlign=top;spacingLeft=4;spacingRight=4;overflow=hidden;rotatable=0;points=[[0,0.5],[1,0.5]];portConstraint=eastwest;" vertex="1" parent="nordsz7KWsW65aY-Uur0-18">
          <mxGeometry y="104" width="160" height="26" as="geometry"/>
        </mxCell>
        <mxCell id="nordsz7KWsW65aY-Uur0-27" value="+ field: Email" style="text;strokeColor=none;fillColor=none;align=left;verticalAlign=top;spacingLeft=4;spacingRight=4;overflow=hidden;rotatable=0;points=[[0,0.5],[1,0.5]];portConstraint=eastwest;" vertex="1" parent="nordsz7KWsW65aY-Uur0-18">
          <mxGeometry y="130" width="160" height="26" as="geometry"/>
        </mxCell>
        <mxCell id="nordsz7KWsW65aY-Uur0-20" value="" style="line;strokeWidth=1;fillColor=none;align=left;verticalAlign=middle;spacingTop=-1;spacingLeft=3;spacingRight=3;rotatable=0;labelPosition=right;points=[];portConstraint=eastwest;" vertex="1" parent="nordsz7KWsW65aY-Uur0-18">
          <mxGeometry y="156" width="160" height="8" as="geometry"/>
        </mxCell>
        <mxCell id="nordsz7KWsW65aY-Uur0-21" value="+ method(type): type" style="text;strokeColor=none;fillColor=none;align=left;verticalAlign=top;spacingLeft=4;spacingRight=4;overflow=hidden;rotatable=0;points=[[0,0.5],[1,0.5]];portConstraint=eastwest;" vertex="1" parent="nordsz7KWsW65aY-Uur0-18">
          <mxGeometry y="164" width="160" height="26" as="geometry"/>
        </mxCell>
        <mxCell id="nordsz7KWsW65aY-Uur0-28" value="Member" style="swimlane;fontStyle=1;align=center;verticalAlign=top;childLayout=stackLayout;horizontal=1;startSize=26;horizontalStack=0;resizeParent=1;resizeParentMax=0;resizeLast=0;collapsible=1;marginBottom=0;" vertex="1" parent="WIyWlLk6GJQsqaUBKTNV-1">
          <mxGeometry x="430" y="30" width="160" height="112" as="geometry"/>
        </mxCell>
        <mxCell id="nordsz7KWsW65aY-Uur0-29" value="+ field: UserID" style="text;strokeColor=none;fillColor=none;align=left;verticalAlign=top;spacingLeft=4;spacingRight=4;overflow=hidden;rotatable=0;points=[[0,0.5],[1,0.5]];portConstraint=eastwest;" vertex="1" parent="nordsz7KWsW65aY-Uur0-28">
          <mxGeometry y="26" width="160" height="26" as="geometry"/>
        </mxCell>
        <mxCell id="nordsz7KWsW65aY-Uur0-30" value="+ field: TeamID" style="text;strokeColor=none;fillColor=none;align=left;verticalAlign=top;spacingLeft=4;spacingRight=4;overflow=hidden;rotatable=0;points=[[0,0.5],[1,0.5]];portConstraint=eastwest;" vertex="1" parent="nordsz7KWsW65aY-Uur0-28">
          <mxGeometry y="52" width="160" height="26" as="geometry"/>
        </mxCell>
        <mxCell id="nordsz7KWsW65aY-Uur0-34" value="" style="line;strokeWidth=1;fillColor=none;align=left;verticalAlign=middle;spacingTop=-1;spacingLeft=3;spacingRight=3;rotatable=0;labelPosition=right;points=[];portConstraint=eastwest;" vertex="1" parent="nordsz7KWsW65aY-Uur0-28">
          <mxGeometry y="78" width="160" height="8" as="geometry"/>
        </mxCell>
        <mxCell id="nordsz7KWsW65aY-Uur0-35" value="+ method(type): type" style="text;strokeColor=none;fillColor=none;align=left;verticalAlign=top;spacingLeft=4;spacingRight=4;overflow=hidden;rotatable=0;points=[[0,0.5],[1,0.5]];portConstraint=eastwest;" vertex="1" parent="nordsz7KWsW65aY-Uur0-28">
          <mxGeometry y="86" width="160" height="26" as="geometry"/>
        </mxCell>
        <mxCell id="nordsz7KWsW65aY-Uur0-37" value="Team" style="swimlane;fontStyle=1;align=center;verticalAlign=top;childLayout=stackLayout;horizontal=1;startSize=26;horizontalStack=0;resizeParent=1;resizeParentMax=0;resizeLast=0;collapsible=1;marginBottom=0;" vertex="1" parent="WIyWlLk6GJQsqaUBKTNV-1">
          <mxGeometry x="640" y="30" width="160" height="112" as="geometry"/>
        </mxCell>
        <mxCell id="nordsz7KWsW65aY-Uur0-38" value="+ field: ID" style="text;strokeColor=none;fillColor=none;align=left;verticalAlign=top;spacingLeft=4;spacingRight=4;overflow=hidden;rotatable=0;points=[[0,0.5],[1,0.5]];portConstraint=eastwest;" vertex="1" parent="nordsz7KWsW65aY-Uur0-37">
          <mxGeometry y="26" width="160" height="26" as="geometry"/>
        </mxCell>
        <mxCell id="nordsz7KWsW65aY-Uur0-39" value="+ field: Name" style="text;strokeColor=none;fillColor=none;align=left;verticalAlign=top;spacingLeft=4;spacingRight=4;overflow=hidden;rotatable=0;points=[[0,0.5],[1,0.5]];portConstraint=eastwest;" vertex="1" parent="nordsz7KWsW65aY-Uur0-37">
          <mxGeometry y="52" width="160" height="26" as="geometry"/>
        </mxCell>
        <mxCell id="nordsz7KWsW65aY-Uur0-43" value="" style="line;strokeWidth=1;fillColor=none;align=left;verticalAlign=middle;spacingTop=-1;spacingLeft=3;spacingRight=3;rotatable=0;labelPosition=right;points=[];portConstraint=eastwest;" vertex="1" parent="nordsz7KWsW65aY-Uur0-37">
          <mxGeometry y="78" width="160" height="8" as="geometry"/>
        </mxCell>
        <mxCell id="nordsz7KWsW65aY-Uur0-44" value="+ method(type): type" style="text;strokeColor=none;fillColor=none;align=left;verticalAlign=top;spacingLeft=4;spacingRight=4;overflow=hidden;rotatable=0;points=[[0,0.5],[1,0.5]];portConstraint=eastwest;" vertex="1" parent="nordsz7KWsW65aY-Uur0-37">
          <mxGeometry y="86" width="160" height="26" as="geometry"/>
        </mxCell>
        <mxCell id="nordsz7KWsW65aY-Uur0-46" style="edgeStyle=orthogonalEdgeStyle;rounded=0;orthogonalLoop=1;jettySize=auto;html=1;exitX=0;exitY=0.5;exitDx=0;exitDy=0;entryX=1;entryY=0.5;entryDx=0;entryDy=0;endArrow=ERmany;endFill=0;" edge="1" parent="WIyWlLk6GJQsqaUBKTNV-1" source="nordsz7KWsW65aY-Uur0-38" target="nordsz7KWsW65aY-Uur0-30">
          <mxGeometry relative="1" as="geometry"/>
        </mxCell>
        <mxCell id="nordsz7KWsW65aY-Uur0-47" style="edgeStyle=orthogonalEdgeStyle;rounded=0;orthogonalLoop=1;jettySize=auto;html=1;entryX=0;entryY=0.5;entryDx=0;entryDy=0;endArrow=ERmany;endFill=0;" edge="1" parent="WIyWlLk6GJQsqaUBKTNV-1" source="nordsz7KWsW65aY-Uur0-19" target="nordsz7KWsW65aY-Uur0-29">
          <mxGeometry relative="1" as="geometry"/>
        </mxCell>
        <mxCell id="nordsz7KWsW65aY-Uur0-48" value="Project" style="swimlane;fontStyle=1;align=center;verticalAlign=top;childLayout=stackLayout;horizontal=1;startSize=26;horizontalStack=0;resizeParent=1;resizeParentMax=0;resizeLast=0;collapsible=1;marginBottom=0;" vertex="1" parent="WIyWlLk6GJQsqaUBKTNV-1">
          <mxGeometry x="230" y="240" width="160" height="190" as="geometry"/>
        </mxCell>
        <mxCell id="nordsz7KWsW65aY-Uur0-49" value="+ field: ID" style="text;strokeColor=none;fillColor=none;align=left;verticalAlign=top;spacingLeft=4;spacingRight=4;overflow=hidden;rotatable=0;points=[[0,0.5],[1,0.5]];portConstraint=eastwest;" vertex="1" parent="nordsz7KWsW65aY-Uur0-48">
          <mxGeometry y="26" width="160" height="26" as="geometry"/>
        </mxCell>
        <mxCell id="nordsz7KWsW65aY-Uur0-50" value="+ field: Name" style="text;strokeColor=none;fillColor=none;align=left;verticalAlign=top;spacingLeft=4;spacingRight=4;overflow=hidden;rotatable=0;points=[[0,0.5],[1,0.5]];portConstraint=eastwest;" vertex="1" parent="nordsz7KWsW65aY-Uur0-48">
          <mxGeometry y="52" width="160" height="26" as="geometry"/>
        </mxCell>
        <mxCell id="nordsz7KWsW65aY-Uur0-51" value="+ field: Description" style="text;strokeColor=none;fillColor=none;align=left;verticalAlign=top;spacingLeft=4;spacingRight=4;overflow=hidden;rotatable=0;points=[[0,0.5],[1,0.5]];portConstraint=eastwest;" vertex="1" parent="nordsz7KWsW65aY-Uur0-48">
          <mxGeometry y="78" width="160" height="26" as="geometry"/>
        </mxCell>
        <mxCell id="nordsz7KWsW65aY-Uur0-52" value="+ field: CreatedBy" style="text;strokeColor=none;fillColor=none;align=left;verticalAlign=top;spacingLeft=4;spacingRight=4;overflow=hidden;rotatable=0;points=[[0,0.5],[1,0.5]];portConstraint=eastwest;" vertex="1" parent="nordsz7KWsW65aY-Uur0-48">
          <mxGeometry y="104" width="160" height="26" as="geometry"/>
        </mxCell>
        <mxCell id="nordsz7KWsW65aY-Uur0-53" value="+ field: CreatedOn" style="text;strokeColor=none;fillColor=none;align=left;verticalAlign=top;spacingLeft=4;spacingRight=4;overflow=hidden;rotatable=0;points=[[0,0.5],[1,0.5]];portConstraint=eastwest;" vertex="1" parent="nordsz7KWsW65aY-Uur0-48">
          <mxGeometry y="130" width="160" height="26" as="geometry"/>
        </mxCell>
        <mxCell id="nordsz7KWsW65aY-Uur0-54" value="" style="line;strokeWidth=1;fillColor=none;align=left;verticalAlign=middle;spacingTop=-1;spacingLeft=3;spacingRight=3;rotatable=0;labelPosition=right;points=[];portConstraint=eastwest;" vertex="1" parent="nordsz7KWsW65aY-Uur0-48">
          <mxGeometry y="156" width="160" height="8" as="geometry"/>
        </mxCell>
        <mxCell id="nordsz7KWsW65aY-Uur0-55" value="+ method(type): type" style="text;strokeColor=none;fillColor=none;align=left;verticalAlign=top;spacingLeft=4;spacingRight=4;overflow=hidden;rotatable=0;points=[[0,0.5],[1,0.5]];portConstraint=eastwest;" vertex="1" parent="nordsz7KWsW65aY-Uur0-48">
          <mxGeometry y="164" width="160" height="26" as="geometry"/>
        </mxCell>
        <mxCell id="nordsz7KWsW65aY-Uur0-56" style="edgeStyle=orthogonalEdgeStyle;rounded=0;orthogonalLoop=1;jettySize=auto;html=1;exitX=0;exitY=0.5;exitDx=0;exitDy=0;entryX=0;entryY=0.5;entryDx=0;entryDy=0;endArrow=ERmany;endFill=0;" edge="1" parent="WIyWlLk6GJQsqaUBKTNV-1" source="nordsz7KWsW65aY-Uur0-19" target="nordsz7KWsW65aY-Uur0-52">
          <mxGeometry relative="1" as="geometry"/>
        </mxCell>
        <mxCell id="nordsz7KWsW65aY-Uur0-57" value="Assigned" style="swimlane;fontStyle=1;align=center;verticalAlign=top;childLayout=stackLayout;horizontal=1;startSize=26;horizontalStack=0;resizeParent=1;resizeParentMax=0;resizeLast=0;collapsible=1;marginBottom=0;" vertex="1" parent="WIyWlLk6GJQsqaUBKTNV-1">
          <mxGeometry x="430" y="170" width="160" height="138" as="geometry"/>
        </mxCell>
        <mxCell id="nordsz7KWsW65aY-Uur0-58" value="+ field: UserID" style="text;strokeColor=none;fillColor=none;align=left;verticalAlign=top;spacingLeft=4;spacingRight=4;overflow=hidden;rotatable=0;points=[[0,0.5],[1,0.5]];portConstraint=eastwest;" vertex="1" parent="nordsz7KWsW65aY-Uur0-57">
          <mxGeometry y="26" width="160" height="26" as="geometry"/>
        </mxCell>
        <mxCell id="nordsz7KWsW65aY-Uur0-59" value="+ field: ProjectID" style="text;strokeColor=none;fillColor=none;align=left;verticalAlign=top;spacingLeft=4;spacingRight=4;overflow=hidden;rotatable=0;points=[[0,0.5],[1,0.5]];portConstraint=eastwest;" vertex="1" parent="nordsz7KWsW65aY-Uur0-57">
          <mxGeometry y="52" width="160" height="26" as="geometry"/>
        </mxCell>
        <mxCell id="nordsz7KWsW65aY-Uur0-62" value="+ field: AssignedOn" style="text;strokeColor=none;fillColor=none;align=left;verticalAlign=top;spacingLeft=4;spacingRight=4;overflow=hidden;rotatable=0;points=[[0,0.5],[1,0.5]];portConstraint=eastwest;" vertex="1" parent="nordsz7KWsW65aY-Uur0-57">
          <mxGeometry y="78" width="160" height="26" as="geometry"/>
        </mxCell>
        <mxCell id="nordsz7KWsW65aY-Uur0-60" value="" style="line;strokeWidth=1;fillColor=none;align=left;verticalAlign=middle;spacingTop=-1;spacingLeft=3;spacingRight=3;rotatable=0;labelPosition=right;points=[];portConstraint=eastwest;" vertex="1" parent="nordsz7KWsW65aY-Uur0-57">
          <mxGeometry y="104" width="160" height="8" as="geometry"/>
        </mxCell>
        <mxCell id="nordsz7KWsW65aY-Uur0-61" value="+ method(type): type" style="text;strokeColor=none;fillColor=none;align=left;verticalAlign=top;spacingLeft=4;spacingRight=4;overflow=hidden;rotatable=0;points=[[0,0.5],[1,0.5]];portConstraint=eastwest;" vertex="1" parent="nordsz7KWsW65aY-Uur0-57">
          <mxGeometry y="112" width="160" height="26" as="geometry"/>
        </mxCell>
        <mxCell id="nordsz7KWsW65aY-Uur0-63" value="Task" style="swimlane;fontStyle=1;align=center;verticalAlign=top;childLayout=stackLayout;horizontal=1;startSize=26;horizontalStack=0;resizeParent=1;resizeParentMax=0;resizeLast=0;collapsible=1;marginBottom=0;" vertex="1" parent="WIyWlLk6GJQsqaUBKTNV-1">
          <mxGeometry x="20" y="240" width="160" height="268" as="geometry"/>
        </mxCell>
        <mxCell id="nordsz7KWsW65aY-Uur0-64" value="+ field: ID" style="text;strokeColor=none;fillColor=none;align=left;verticalAlign=top;spacingLeft=4;spacingRight=4;overflow=hidden;rotatable=0;points=[[0,0.5],[1,0.5]];portConstraint=eastwest;" vertex="1" parent="nordsz7KWsW65aY-Uur0-63">
          <mxGeometry y="26" width="160" height="26" as="geometry"/>
        </mxCell>
        <mxCell id="nordsz7KWsW65aY-Uur0-65" value="+ field: Name" style="text;strokeColor=none;fillColor=none;align=left;verticalAlign=top;spacingLeft=4;spacingRight=4;overflow=hidden;rotatable=0;points=[[0,0.5],[1,0.5]];portConstraint=eastwest;" vertex="1" parent="nordsz7KWsW65aY-Uur0-63">
          <mxGeometry y="52" width="160" height="26" as="geometry"/>
        </mxCell>
        <mxCell id="nordsz7KWsW65aY-Uur0-66" value="+ field: Description" style="text;strokeColor=none;fillColor=none;align=left;verticalAlign=top;spacingLeft=4;spacingRight=4;overflow=hidden;rotatable=0;points=[[0,0.5],[1,0.5]];portConstraint=eastwest;" vertex="1" parent="nordsz7KWsW65aY-Uur0-63">
          <mxGeometry y="78" width="160" height="26" as="geometry"/>
        </mxCell>
        <mxCell id="nordsz7KWsW65aY-Uur0-73" value="+ field: ProjectID" style="text;strokeColor=none;fillColor=none;align=left;verticalAlign=top;spacingLeft=4;spacingRight=4;overflow=hidden;rotatable=0;points=[[0,0.5],[1,0.5]];portConstraint=eastwest;" vertex="1" parent="nordsz7KWsW65aY-Uur0-63">
          <mxGeometry y="104" width="160" height="26" as="geometry"/>
        </mxCell>
        <mxCell id="nordsz7KWsW65aY-Uur0-67" value="+ field: CreatedBy" style="text;strokeColor=none;fillColor=none;align=left;verticalAlign=top;spacingLeft=4;spacingRight=4;overflow=hidden;rotatable=0;points=[[0,0.5],[1,0.5]];portConstraint=eastwest;" vertex="1" parent="nordsz7KWsW65aY-Uur0-63">
          <mxGeometry y="130" width="160" height="26" as="geometry"/>
        </mxCell>
        <mxCell id="nordsz7KWsW65aY-Uur0-68" value="+ field: CreatedOn" style="text;strokeColor=none;fillColor=none;align=left;verticalAlign=top;spacingLeft=4;spacingRight=4;overflow=hidden;rotatable=0;points=[[0,0.5],[1,0.5]];portConstraint=eastwest;" vertex="1" parent="nordsz7KWsW65aY-Uur0-63">
          <mxGeometry y="156" width="160" height="26" as="geometry"/>
        </mxCell>
        <mxCell id="nordsz7KWsW65aY-Uur0-74" value="+ field: StartDate" style="text;strokeColor=none;fillColor=none;align=left;verticalAlign=top;spacingLeft=4;spacingRight=4;overflow=hidden;rotatable=0;points=[[0,0.5],[1,0.5]];portConstraint=eastwest;" vertex="1" parent="nordsz7KWsW65aY-Uur0-63">
          <mxGeometry y="182" width="160" height="26" as="geometry"/>
        </mxCell>
        <mxCell id="nordsz7KWsW65aY-Uur0-75" value="+ field: EndDate" style="text;strokeColor=none;fillColor=none;align=left;verticalAlign=top;spacingLeft=4;spacingRight=4;overflow=hidden;rotatable=0;points=[[0,0.5],[1,0.5]];portConstraint=eastwest;" vertex="1" parent="nordsz7KWsW65aY-Uur0-63">
          <mxGeometry y="208" width="160" height="26" as="geometry"/>
        </mxCell>
        <mxCell id="nordsz7KWsW65aY-Uur0-69" value="" style="line;strokeWidth=1;fillColor=none;align=left;verticalAlign=middle;spacingTop=-1;spacingLeft=3;spacingRight=3;rotatable=0;labelPosition=right;points=[];portConstraint=eastwest;" vertex="1" parent="nordsz7KWsW65aY-Uur0-63">
          <mxGeometry y="234" width="160" height="8" as="geometry"/>
        </mxCell>
        <mxCell id="nordsz7KWsW65aY-Uur0-70" value="+ method(type): type" style="text;strokeColor=none;fillColor=none;align=left;verticalAlign=top;spacingLeft=4;spacingRight=4;overflow=hidden;rotatable=0;points=[[0,0.5],[1,0.5]];portConstraint=eastwest;" vertex="1" parent="nordsz7KWsW65aY-Uur0-63">
          <mxGeometry y="242" width="160" height="26" as="geometry"/>
        </mxCell>
        <mxCell id="nordsz7KWsW65aY-Uur0-71" style="edgeStyle=orthogonalEdgeStyle;rounded=0;orthogonalLoop=1;jettySize=auto;html=1;exitX=1;exitY=0.5;exitDx=0;exitDy=0;entryX=0;entryY=0.5;entryDx=0;entryDy=0;endArrow=ERmany;endFill=0;" edge="1" parent="WIyWlLk6GJQsqaUBKTNV-1" source="nordsz7KWsW65aY-Uur0-19" target="nordsz7KWsW65aY-Uur0-58">
          <mxGeometry relative="1" as="geometry"/>
        </mxCell>
        <mxCell id="nordsz7KWsW65aY-Uur0-72" style="edgeStyle=orthogonalEdgeStyle;rounded=0;orthogonalLoop=1;jettySize=auto;html=1;exitX=1;exitY=0.5;exitDx=0;exitDy=0;entryX=0;entryY=0.5;entryDx=0;entryDy=0;endArrow=ERmany;endFill=0;" edge="1" parent="WIyWlLk6GJQsqaUBKTNV-1" source="nordsz7KWsW65aY-Uur0-49" target="nordsz7KWsW65aY-Uur0-59">
          <mxGeometry relative="1" as="geometry"/>
        </mxCell>
        <mxCell id="nordsz7KWsW65aY-Uur0-80" style="edgeStyle=orthogonalEdgeStyle;rounded=0;orthogonalLoop=1;jettySize=auto;html=1;exitX=0;exitY=0.5;exitDx=0;exitDy=0;entryX=1;entryY=0.5;entryDx=0;entryDy=0;endArrow=ERmany;endFill=0;" edge="1" parent="WIyWlLk6GJQsqaUBKTNV-1" source="nordsz7KWsW65aY-Uur0-19" target="nordsz7KWsW65aY-Uur0-67">
          <mxGeometry relative="1" as="geometry"/>
        </mxCell>
        <mxCell id="nordsz7KWsW65aY-Uur0-81" style="edgeStyle=orthogonalEdgeStyle;rounded=0;orthogonalLoop=1;jettySize=auto;html=1;exitX=0;exitY=0.5;exitDx=0;exitDy=0;entryX=1;entryY=0.5;entryDx=0;entryDy=0;endArrow=ERmany;endFill=0;" edge="1" parent="WIyWlLk6GJQsqaUBKTNV-1" source="nordsz7KWsW65aY-Uur0-49" target="nordsz7KWsW65aY-Uur0-73">
          <mxGeometry relative="1" as="geometry"/>
        </mxCell>
        <mxCell id="nordsz7KWsW65aY-Uur0-82" value="Comment" style="swimlane;fontStyle=1;align=center;verticalAlign=top;childLayout=stackLayout;horizontal=1;startSize=26;horizontalStack=0;resizeParent=1;resizeParentMax=0;resizeLast=0;collapsible=1;marginBottom=0;" vertex="1" parent="WIyWlLk6GJQsqaUBKTNV-1">
          <mxGeometry x="230" y="450" width="160" height="190" as="geometry"/>
        </mxCell>
        <mxCell id="nordsz7KWsW65aY-Uur0-83" value="+ field: ID" style="text;strokeColor=none;fillColor=none;align=left;verticalAlign=top;spacingLeft=4;spacingRight=4;overflow=hidden;rotatable=0;points=[[0,0.5],[1,0.5]];portConstraint=eastwest;" vertex="1" parent="nordsz7KWsW65aY-Uur0-82">
          <mxGeometry y="26" width="160" height="26" as="geometry"/>
        </mxCell>
        <mxCell id="nordsz7KWsW65aY-Uur0-84" value="+ field: Text" style="text;strokeColor=none;fillColor=none;align=left;verticalAlign=top;spacingLeft=4;spacingRight=4;overflow=hidden;rotatable=0;points=[[0,0.5],[1,0.5]];portConstraint=eastwest;" vertex="1" parent="nordsz7KWsW65aY-Uur0-82">
          <mxGeometry y="52" width="160" height="26" as="geometry"/>
        </mxCell>
        <mxCell id="nordsz7KWsW65aY-Uur0-85" value="+ field: TaskID" style="text;strokeColor=none;fillColor=none;align=left;verticalAlign=top;spacingLeft=4;spacingRight=4;overflow=hidden;rotatable=0;points=[[0,0.5],[1,0.5]];portConstraint=eastwest;" vertex="1" parent="nordsz7KWsW65aY-Uur0-82">
          <mxGeometry y="78" width="160" height="26" as="geometry"/>
        </mxCell>
        <mxCell id="nordsz7KWsW65aY-Uur0-86" value="+ field: CreatedBy" style="text;strokeColor=none;fillColor=none;align=left;verticalAlign=top;spacingLeft=4;spacingRight=4;overflow=hidden;rotatable=0;points=[[0,0.5],[1,0.5]];portConstraint=eastwest;" vertex="1" parent="nordsz7KWsW65aY-Uur0-82">
          <mxGeometry y="104" width="160" height="26" as="geometry"/>
        </mxCell>
        <mxCell id="nordsz7KWsW65aY-Uur0-87" value="+ field: CreatedOn" style="text;strokeColor=none;fillColor=none;align=left;verticalAlign=top;spacingLeft=4;spacingRight=4;overflow=hidden;rotatable=0;points=[[0,0.5],[1,0.5]];portConstraint=eastwest;" vertex="1" parent="nordsz7KWsW65aY-Uur0-82">
          <mxGeometry y="130" width="160" height="26" as="geometry"/>
        </mxCell>
        <mxCell id="nordsz7KWsW65aY-Uur0-88" value="" style="line;strokeWidth=1;fillColor=none;align=left;verticalAlign=middle;spacingTop=-1;spacingLeft=3;spacingRight=3;rotatable=0;labelPosition=right;points=[];portConstraint=eastwest;" vertex="1" parent="nordsz7KWsW65aY-Uur0-82">
          <mxGeometry y="156" width="160" height="8" as="geometry"/>
        </mxCell>
        <mxCell id="nordsz7KWsW65aY-Uur0-89" value="+ method(type): type" style="text;strokeColor=none;fillColor=none;align=left;verticalAlign=top;spacingLeft=4;spacingRight=4;overflow=hidden;rotatable=0;points=[[0,0.5],[1,0.5]];portConstraint=eastwest;" vertex="1" parent="nordsz7KWsW65aY-Uur0-82">
          <mxGeometry y="164" width="160" height="26" as="geometry"/>
        </mxCell>
        <mxCell id="nordsz7KWsW65aY-Uur0-91" style="edgeStyle=orthogonalEdgeStyle;rounded=0;orthogonalLoop=1;jettySize=auto;html=1;exitX=1;exitY=0.5;exitDx=0;exitDy=0;entryX=0;entryY=0.5;entryDx=0;entryDy=0;endArrow=ERmany;endFill=0;" edge="1" parent="WIyWlLk6GJQsqaUBKTNV-1" source="nordsz7KWsW65aY-Uur0-64" target="nordsz7KWsW65aY-Uur0-85">
          <mxGeometry relative="1" as="geometry"/>
        </mxCell>
      </root>
    </mxGraphModel>
  </diagram>
</mxfile>
